<?xml version="1.0" encoding="UTF-8"?>
<svg id="Layer_1" data-name="Layer 1" xmlns="http://www.w3.org/2000/svg" viewBox="0 0 93.45 147.92">
  <defs>
    <style>
      .cls-1 {
        fill: #ed1c24;
      }

      .cls-1, .cls-2, .cls-3 {
        stroke-width: 0px;
      }

      .cls-2 {
        fill: #fff;
      }

      .cls-3 {
        fill: #1c75bc;
      }
    </style>
  </defs>
  <path class="cls-3" d="M54.61,143.39c-15.68-7.91-35.28-21.22-49.5-43.45-1.9-2.97-3.59-5.93-5.11-8.85C4.47,76.37,20.5,30.47,64.61,8.81c8.93-4.38,17.7-7.13,25.84-8.81-9.37,10.39-27.28,33.02-35.83,67.28-8.53,34.19-3.39,62.53-.01,76.11Z"/>
  <path class="cls-1" d="M93.45,147.92c-17.19-3.59-39.57-11.37-59.06-29.16-2.6-2.38-5.01-4.79-7.23-7.23.51-15.37,4.11-63.86,41.12-96.19,7.49-6.54,15.25-11.47,22.68-15.2-6.37,12.46-17.8,38.95-17.2,74.26.61,35.24,12.91,61.28,19.69,73.52Z"/>
  <g>
    <rect class="cls-2" x="47.89" y="68.51" width="9.89" height="34.53"/>
    <rect class="cls-2" x="47.75" y="68.98" width="10.16" height="33.58" transform="translate(-32.95 138.6) rotate(-90)"/>
  </g>
</svg>